# xmcd
#
# Track frame offsets: 
#        150
#        17007
#        31795
#        45754
#        62682
#        77432
#        91068
#        103522
#        125317
#        139024
#        157431
#        172389
#        196163
#        215084
#
# Disc length: 3035 seconds
#
# Revision: 0
# Processed by: cddbd v1.5.2PL0 Copyright (c) Steve Scherf et al.
# Submitted via: ExactAudioCopy v1.3
#
DISCID=b30bd90e
DTITLE=Jim Allchin - Decisions
DYEAR=2017
DGENRE=Blues
TTITLE0=Artificial Life
TTITLE1=The Mexican End
TTITLE2=Bad Decision
TTITLE3=Healing Ground
TTITLE4=Blew Me Away
TTITLE5=She Is It
TTITLE6=Just Plain Sick
TTITLE7=Friends
TTITLE8=You Might Be Wrong
TTITLE9=After Hours
TTITLE10=Don’t Care
TTITLE11=Stop Hurting Me
TTITLE12=My Father’s Eyes
TTITLE13=Destiny
EXTD=
EXTT0=
EXTT1=
EXTT2=
EXTT3=
EXTT4=
EXTT5=
EXTT6=
EXTT7=
EXTT8=
EXTT9=
EXTT10=
EXTT11=
EXTT12=
EXTT13=
PLAYORDER=
